<?xml version="1.0" standalone="no"?>
<!DOCTYPE svg PUBLIC "-//W3C//DTD SVG 20010904//EN"
 "http://www.w3.org/TR/2001/REC-SVG-20010904/DTD/svg10.dtd">
<svg version="1.0" xmlns="http://www.w3.org/2000/svg"
 width="1280.000000pt" height="1109.000000pt" viewBox="0 0 1280.000000 1109.000000"
 preserveAspectRatio="xMidYMid meet">
<g transform="translate(0.000000,1109.000000) scale(0.100000,-0.100000)"
fill="#000000" stroke="none">
<path d="M950 11033 c0 -40 17 -180 50 -413 40 -280 39 -382 -4 -401 -37 -17
-76 10 -230 160 -175 170 -244 231 -262 231 -10 0 -12 -11 -9 -42 3 -24 14
-153 25 -288 12 -135 44 -497 71 -805 41 -455 49 -570 40 -612 -5 -28 -35
-106 -66 -173 -131 -288 -294 -781 -342 -1035 -24 -130 -28 -435 -8 -600 29
-241 29 -261 11 -310 -21 -53 -58 -87 -123 -111 -122 -44 -143 -144 -24 -108
64 19 115 18 134 -4 18 -20 32 -78 42 -175 23 -228 139 -417 256 -417 57 0
129 -64 129 -114 0 -26 -55 -76 -180 -166 -166 -118 -282 -246 -355 -390 -51
-101 -65 -161 -65 -274 0 -85 4 -109 24 -151 45 -98 220 -227 361 -266 28 -8
88 -14 135 -13 149 1 273 60 402 188 63 63 84 92 192 258 65 99 133 165 182
174 40 7 116 -27 178 -80 l38 -33 -66 -210 c-36 -115 -77 -254 -91 -308 -55
-214 -69 -376 -35 -383 22 -4 46 50 74 171 49 204 151 509 211 626 33 67 59
83 127 79 l53 -3 6 -320 c6 -327 14 -431 30 -402 14 25 27 105 54 336 33 279
49 335 114 393 62 56 105 69 271 78 140 9 162 14 330 85 40 17 91 30 132 33
62 4 68 3 91 -22 13 -14 34 -52 46 -83 32 -85 83 -157 125 -177 32 -15 40 -15
94 -1 346 89 591 296 839 705 161 266 179 294 219 335 88 91 129 73 351 -152
90 -90 167 -172 172 -181 6 -12 -11 -61 -56 -167 -69 -165 -116 -306 -133
-403 -6 -35 -15 -181 -19 -325 -5 -144 -13 -274 -19 -289 -6 -14 -19 -29 -29
-31 -38 -11 -160 -18 -478 -27 -342 -10 -476 -24 -600 -61 -140 -42 -251 -115
-326 -214 -95 -125 -218 -384 -263 -552 -29 -111 -40 -131 -71 -139 -41 -10
-105 37 -222 161 -59 64 -123 125 -141 137 -32 20 -34 20 -79 3 -135 -52 -448
-381 -630 -665 -81 -125 -113 -222 -113 -341 0 -189 98 -361 347 -606 265
-262 543 -463 826 -598 161 -77 526 -204 616 -215 113 -14 432 -29 776 -36
l330 -6 87 97 c107 119 113 135 105 305 -8 159 -27 235 -125 501 -87 233 -141
411 -171 559 -23 108 -54 377 -46 390 7 12 56 17 525 50 583 42 812 83 998
180 48 25 63 23 162 -20 36 -16 95 -34 130 -39 41 -7 70 -17 79 -28 15 -20 11
-263 -10 -588 -6 -93 -12 -285 -13 -425 l-1 -255 33 -60 c73 -136 236 -296
440 -433 63 -42 125 -91 139 -109 58 -76 36 -150 -96 -326 -209 -278 -234
-339 -207 -497 37 -208 150 -321 449 -450 325 -139 437 -156 787 -120 313 32
552 70 765 123 77 20 188 45 247 57 59 11 201 49 315 82 197 58 214 61 318 62
64 1 154 -6 215 -17 62 -10 236 -24 425 -32 176 -8 426 -22 555 -31 718 -47
817 -41 1185 69 44 14 148 34 230 46 83 12 177 29 210 37 144 37 382 178 478
284 89 98 132 202 158 380 22 154 22 213 0 313 -28 121 -73 197 -172 291 -132
126 -235 161 -484 159 -182 0 -303 -18 -635 -89 -450 -98 -652 -128 -935 -140
-238 -10 -536 23 -641 72 -22 10 -92 71 -157 136 -65 65 -132 125 -148 134
-53 27 -200 55 -324 61 -96 4 -147 1 -253 -16 -308 -49 -514 -6 -706 149 -146
118 -461 445 -569 592 -38 51 -111 200 -136 278 -57 177 -72 365 -48 610 18
180 35 235 105 347 74 118 124 222 177 368 62 171 71 193 102 238 33 48 72 71
180 108 113 38 182 86 254 176 274 345 516 1003 536 1460 7 158 -3 197 -67
257 -26 24 -61 51 -77 60 -51 26 -173 54 -264 61 l-87 7 -32 -103 c-38 -121
-65 -179 -84 -179 -21 0 -48 38 -100 140 -26 49 -60 103 -77 120 -64 63 -212
120 -314 120 -56 0 -69 -4 -90 -24 -25 -25 -45 -82 -45 -131 0 -39 -25 -132
-40 -151 -25 -30 -46 -13 -114 94 -188 292 -254 334 -726 468 -491 138 -726
209 -1075 324 -552 182 -649 205 -825 198 -129 -6 -164 2 -187 45 -25 45 -21
162 12 370 14 93 27 203 28 245 l2 77 -82 0 c-44 0 -83 2 -86 5 -3 3 3 93 13
200 38 391 51 595 41 622 -13 35 -32 40 -356 93 -515 85 -816 156 -1164 276
-411 143 -756 326 -1116 594 -226 168 -359 287 -821 736 -100 97 -196 186
-213 198 l-31 22 0 -38z m933 -2947 c17 -45 -104 -478 -222 -795 -106 -281
-225 -513 -406 -787 -130 -196 -216 -294 -258 -294 -49 0 -81 48 -115 168 -26
93 -51 135 -151 252 -100 117 -145 199 -130 238 18 48 78 110 288 302 114 103
341 324 504 491 389 398 473 471 490 425z m2153 -202 c238 -61 374 -197 374
-373 0 -71 -18 -100 -156 -256 -53 -61 -109 -136 -125 -168 -33 -65 -82 -257
-105 -411 -10 -67 -23 -115 -39 -141 -13 -22 -103 -114 -200 -205 -232 -216
-388 -379 -599 -624 -95 -111 -207 -233 -250 -273 -71 -66 -86 -76 -204 -122
-278 -109 -487 -145 -605 -105 -29 10 -61 32 -88 62 -24 25 -44 41 -47 34 -2
-6 -17 -29 -33 -52 -36 -50 -71 -66 -110 -49 -42 17 -53 61 -39 155 9 55 9 79
1 87 -15 15 -33 -4 -79 -83 -48 -82 -80 -105 -140 -103 -62 2 -124 23 -257 89
-142 70 -276 166 -390 279 -111 110 -149 176 -133 233 14 52 56 105 131 167
35 29 101 102 147 161 116 151 205 241 343 347 65 49 175 146 244 213 69 68
169 157 222 197 121 93 644 436 815 534 445 256 905 430 1142 432 57 1 111 -7
180 -25z m39 -1559 c30 -29 30 -36 5 -116 -61 -196 -431 -746 -621 -924 -70
-65 -176 -126 -251 -145 -59 -15 -95 0 -121 50 -30 60 -5 140 85 273 133 196
677 784 792 856 60 37 79 39 111 6z"/>
</g>
</svg>
