<?xml version="1.0" encoding="utf-8"?>
<!-- Generator: Adobe Illustrator 27.4.0, SVG Export Plug-In . SVG Version: 6.00 Build 0)  -->
<svg version="1.1" id="Layer_1" xmlns="http://www.w3.org/2000/svg" xmlns:xlink="http://www.w3.org/1999/xlink" x="0px" y="0px"
	 viewBox="0 0 1000 232" style="enable-background:new 0 0 1000 232;" xml:space="preserve">
<style type="text/css">
	.st0{fill:#485BA6;}
	.st1{fill:#4666AE;}
	.st2{fill:#FFFFFF;}
	.st3{opacity:0.5;}
	.st4{fill:#3E3E3E;}
</style>
<g>
	<g>
		<g>
			
				<ellipse transform="matrix(0.7071 -0.7071 0.7071 0.7071 -48.2567 117.9156)" class="st0" cx="118.21" cy="117.21" rx="111.21" ry="111.21"/>
		</g>
		<g>
			<path class="st1" d="M124.18,131.47c0,0-4.25,0.05-9.58,0.96c0.95-0.15,1.96-0.3,3.02-0.41c2.97-0.36,5.64-0.5,7.57-0.55H124.18z
				"/>
		</g>
		<g>
			<polygon class="st1" points="172.48,137.14 174.77,131.47 174.76,131.47 171.12,140.48 			"/>
		</g>
		<g>
			<g>
				<path class="st2" d="M170.75,80.11c1.45-3.57,2.17-6.23,2.17-7.98c0-2.17-0.85-4.02-2.55-5.54c-1.71-1.52-3.83-2.28-6.36-2.28
					c-5.57,0-9.66,3.1-12.24,9.3l-15.97,39.35l-3.33,0.08l-11,0.31c-3.55,0-7.11,0.26-10.7,0.75l0,0c-0.03,0-0.07,0.01-0.1,0.02
					c-1.39,0.19-2.78,0.43-4.18,0.7c-1.25,0.2-2.45,0.42-3.31,0.69c-3.3,1.05-9.06,2.33-14.54,6.08c-3.77,2.59-6.28,5.17-8.43,8.07
					l-2.38-6.47l37.02-38.58c4.19-4.38,6.28-8.1,6.28-11.16c0-2.47-0.83-4.53-2.48-6.16c-1.66-1.62-3.72-2.43-6.2-2.43
					c-3.62,0-7.62,2.29-12.01,6.89l-40.61,42.64l12.94-34.27c1.32-3.57,1.95-6.23,1.89-7.98c-0.08-2.17-0.99-4.02-2.75-5.54
					c-1.76-1.52-3.9-2.28-6.43-2.28c-5.58,0-9.55,3.1-11.92,9.3l-17.45,46.18l-16.15,39.73c-0.88,2.22-1.32,4.18-1.32,5.88
					c0,2.13,0.85,3.96,2.56,5.51c1.7,1.54,3.75,2.32,6.12,2.32c5.73,0,10.14-3.86,13.24-11.62l16.04-39.43
					c0,0,9.18,24.94,16.26,43.98c0.23,0.62,0.45,1.22,0.68,1.82c1.58,3.8,4.08,7.11,7.3,10.1c1.84,1.71,3.83,3.15,5.97,4.34
					c5,2.79,10.82,4.2,17.45,4.2c17.82,0,26.19-10.42,33.92-26.9l7.93-19.22L170.75,80.11z M127.95,132.26l-8.75,20.63
					c-5,10.49-11.31,12.85-15.65,13.24c-3.18,0.29-6.83-0.86-8.53-2.09c-2.03-1.49-3.44-3.44-4.23-5.6
					c-0.02-0.03-0.04-0.08-0.05-0.12c-0.46-1.29-0.71-2.64-0.74-3.99c-0.08-3.6,1.76-8.03,3.33-10.31c2.19-3.19,4.47-5.6,9.22-7.95
					c0.01,0,0.01,0,0.01,0c2.89-1.43,6.13-2.4,9.21-3.08c1.99-0.42,3.98-0.74,5.85-0.96c-1.06,0.11-2.07,0.26-3.02,0.41
					c5.33-0.91,9.58-0.96,9.58-0.96h1.02c-1.93,0.05-4.6,0.19-7.57,0.55c3.05-0.34,6.57-0.55,10.64-0.55L127.95,132.26z"/>
			</g>
		</g>
		<g>
			<path class="st2" d="M211.87,112.96l-1.62-0.03h-6.47l13.15-32.35c1.49-3.72,2.24-6.46,2.24-8.21c0-2.27-0.86-4.18-2.56-5.73
				c-1.71-1.55-3.77-2.32-6.19-2.32c-5.63,0-9.77,3.18-12.4,9.53l-26.9,66.64l-7.86,19.31c-0.88,2.22-1.32,4.18-1.32,5.88
				c0,2.12,0.85,3.96,2.55,5.51c1.71,1.55,3.75,2.32,6.12,2.32c2.71,0,5.13-0.88,7.24-2.6c2.37-1.94,4.37-4.93,6.01-9.02
				l12.39-30.42h0.06h9.92c4.44,0,7.92-0.97,10.44-2.9c2.54-1.94,3.8-4.61,3.8-8.02C220.47,115.49,217.6,112.96,211.87,112.96z"/>
		</g>
		<g>
			<polygon class="st1" points="171.12,140.48 171.09,140.55 171.09,140.55 			"/>
		</g>
		<g class="st3">
			<g>
				<polyline class="st2" points="149.8,131.47 174.83,131.47 182.25,112.92 157.38,112.92 				"/>
			</g>
		</g>
	</g>
</g>
</svg>
